<svg width="91" height="63" viewBox="0 0 91 63" fill="none" xmlns="http://www.w3.org/2000/svg">
<g filter="url(#filter0_d_6_6)">
<path d="M4.11364 23V5.54545H6.22727V13.3182H15.5341V5.54545H17.6477V23H15.5341V15.1932H6.22727V23H4.11364ZM21.6065 23V9.90909H23.6179V23H21.6065ZM22.6293 7.72727C22.2372 7.72727 21.8991 7.59375 21.6151 7.3267C21.3366 7.05966 21.1974 6.73864 21.1974 6.36364C21.1974 5.98864 21.3366 5.66761 21.6151 5.40057C21.8991 5.13352 22.2372 5 22.6293 5C23.0213 5 23.3565 5.13352 23.6349 5.40057C23.919 5.66761 24.0611 5.98864 24.0611 6.36364C24.0611 6.73864 23.919 7.05966 23.6349 7.3267C23.3565 7.59375 23.0213 7.72727 22.6293 7.72727ZM36.5746 12.8409L34.7678 13.3523C34.6541 13.0511 34.4865 12.7585 34.2649 12.4744C34.049 12.1847 33.7536 11.946 33.3786 11.7585C33.0036 11.571 32.5234 11.4773 31.9382 11.4773C31.1371 11.4773 30.4695 11.6619 29.9354 12.0312C29.407 12.3949 29.1428 12.858 29.1428 13.4205C29.1428 13.9205 29.3246 14.3153 29.6882 14.6051C30.0518 14.8949 30.62 15.1364 31.3928 15.3295L33.3359 15.8068C34.5064 16.0909 35.3786 16.5256 35.9524 17.1108C36.5263 17.6903 36.8132 18.4375 36.8132 19.3523C36.8132 20.1023 36.5973 20.7727 36.1655 21.3636C35.7393 21.9545 35.1428 22.4205 34.3757 22.7614C33.6087 23.1023 32.7166 23.2727 31.6996 23.2727C30.3643 23.2727 29.2592 22.983 28.3842 22.4034C27.5092 21.8239 26.9553 20.9773 26.7223 19.8636L28.6314 19.3864C28.8132 20.0909 29.157 20.6193 29.6626 20.9716C30.174 21.3239 30.8416 21.5 31.6655 21.5C32.603 21.5 33.3473 21.3011 33.8984 20.9034C34.4553 20.5 34.7337 20.017 34.7337 19.4545C34.7337 19 34.5746 18.6193 34.2564 18.3125C33.9382 18 33.4496 17.767 32.7905 17.6136L30.6087 17.1023C29.4098 16.8182 28.5291 16.3778 27.9666 15.7812C27.4098 15.179 27.1314 14.4261 27.1314 13.5227C27.1314 12.7841 27.3388 12.1307 27.7536 11.5625C28.174 10.9943 28.745 10.5483 29.4666 10.2244C30.1939 9.90057 31.0178 9.73864 31.9382 9.73864C33.2337 9.73864 34.2507 10.0227 34.9893 10.5909C35.7337 11.1591 36.2621 11.9091 36.5746 12.8409ZM45.5341 9.90909V11.6136H38.75V9.90909H45.5341ZM40.7273 6.77273H42.7386V19.25C42.7386 19.8182 42.821 20.2443 42.9858 20.5284C43.1563 20.8068 43.3722 20.9943 43.6335 21.0909C43.9006 21.1818 44.1818 21.2273 44.4773 21.2273C44.6989 21.2273 44.8807 21.2159 45.0227 21.1932C45.1648 21.1648 45.2784 21.142 45.3636 21.125L45.7727 22.9318C45.6364 22.983 45.446 23.0341 45.2017 23.0852C44.9574 23.142 44.6477 23.1705 44.2727 23.1705C43.7045 23.1705 43.1477 23.0483 42.6023 22.804C42.0625 22.5597 41.6136 22.1875 41.2557 21.6875C40.9034 21.1875 40.7273 20.5568 40.7273 19.7955V6.77273ZM53.7372 23.2727C52.5554 23.2727 51.5185 22.9915 50.6264 22.429C49.7401 21.8665 49.0469 21.0795 48.5469 20.0682C48.0526 19.0568 47.8054 17.875 47.8054 16.5227C47.8054 15.1591 48.0526 13.9687 48.5469 12.9517C49.0469 11.9347 49.7401 11.1449 50.6264 10.5824C51.5185 10.0199 52.5554 9.73864 53.7372 9.73864C54.919 9.73864 55.9531 10.0199 56.8395 10.5824C57.7315 11.1449 58.4247 11.9347 58.919 12.9517C59.419 13.9687 59.669 15.1591 59.669 16.5227C59.669 17.875 59.419 19.0568 58.919 20.0682C58.4247 21.0795 57.7315 21.8665 56.8395 22.429C55.9531 22.9915 54.919 23.2727 53.7372 23.2727ZM53.7372 21.4659C54.6349 21.4659 55.3736 21.2358 55.9531 20.7756C56.5327 20.3153 56.9616 19.7102 57.2401 18.9602C57.5185 18.2102 57.6577 17.3977 57.6577 16.5227C57.6577 15.6477 57.5185 14.8324 57.2401 14.0767C56.9616 13.321 56.5327 12.7102 55.9531 12.2443C55.3736 11.7784 54.6349 11.5455 53.7372 11.5455C52.8395 11.5455 52.1009 11.7784 51.5213 12.2443C50.9418 12.7102 50.5128 13.321 50.2344 14.0767C49.956 14.8324 49.8168 15.6477 49.8168 16.5227C49.8168 17.3977 49.956 18.2102 50.2344 18.9602C50.5128 19.7102 50.9418 20.3153 51.5213 20.7756C52.1009 21.2358 52.8395 21.4659 53.7372 21.4659ZM62.7393 23V9.90909H64.6825V11.8864H64.8189C65.0575 11.2386 65.4893 10.7131 66.1143 10.3097C66.7393 9.90625 67.4439 9.70454 68.228 9.70454C68.3757 9.70454 68.5604 9.70739 68.782 9.71307C69.0036 9.71875 69.1712 9.72727 69.2848 9.73864V11.7841C69.2166 11.767 69.0604 11.7415 68.8161 11.7074C68.5774 11.6676 68.3246 11.6477 68.0575 11.6477C67.4212 11.6477 66.853 11.7812 66.353 12.0483C65.8587 12.3097 65.4666 12.6733 65.1768 13.1392C64.8928 13.5994 64.7507 14.125 64.7507 14.7159V23H62.7393ZM73.3629 27.9091C73.022 27.9091 72.718 27.8807 72.451 27.8239C72.1839 27.7727 71.9993 27.7216 71.897 27.6705L72.4084 25.8977C72.897 26.0227 73.3288 26.0682 73.7038 26.0341C74.0788 26 74.4112 25.8324 74.701 25.5312C74.9964 25.2358 75.2663 24.7557 75.5107 24.0909L75.8857 23.0682L71.0447 9.90909H73.2266L76.8402 20.3409H76.9766L80.5902 9.90909H82.772L77.2152 24.9091C76.9652 25.5852 76.6555 26.1449 76.2862 26.5881C75.9169 27.0369 75.4879 27.3693 74.9993 27.5852C74.5163 27.8011 73.9709 27.9091 73.3629 27.9091ZM14.72 46.416H6.248V54H4.232V37.248H6.248V44.64H14.72V37.248H16.736V54H14.72V46.416ZM25.6648 54.288C24.8168 54.288 24.0488 54.136 23.3608 53.832C22.6888 53.528 22.1048 53.096 21.6088 52.536C21.1288 51.96 20.7528 51.28 20.4808 50.496C20.2248 49.696 20.0968 48.8 20.0968 47.808C20.0968 46.832 20.2248 45.944 20.4808 45.144C20.7528 44.344 21.1288 43.664 21.6088 43.104C22.1048 42.528 22.6888 42.088 23.3608 41.784C24.0488 41.48 24.8168 41.328 25.6648 41.328C26.4968 41.328 27.2408 41.48 27.8968 41.784C28.5528 42.088 29.1128 42.512 29.5768 43.056C30.0408 43.584 30.3928 44.216 30.6328 44.952C30.8888 45.688 31.0168 46.496 31.0168 47.376V48.288H22.1128V48.864C22.1128 49.392 22.1928 49.888 22.3528 50.352C22.5288 50.8 22.7688 51.192 23.0728 51.528C23.3928 51.864 23.7768 52.128 24.2248 52.32C24.6888 52.512 25.2088 52.608 25.7848 52.608C26.5688 52.608 27.2488 52.424 27.8248 52.056C28.4168 51.688 28.8728 51.16 29.1928 50.472L30.5608 51.456C30.1608 52.304 29.5368 52.992 28.6888 53.52C27.8408 54.032 26.8328 54.288 25.6648 54.288ZM25.6648 42.936C25.1368 42.936 24.6568 43.032 24.2248 43.224C23.7928 43.4 23.4168 43.656 23.0968 43.992C22.7928 44.328 22.5528 44.728 22.3768 45.192C22.2008 45.64 22.1128 46.136 22.1128 46.68V46.848H28.9528V46.584C28.9528 45.48 28.6488 44.6 28.0408 43.944C27.4488 43.272 26.6568 42.936 25.6648 42.936ZM34.1806 54V41.616H36.1006V43.896H36.2206C36.4446 43.304 36.8446 42.776 37.4206 42.312C37.9966 41.848 38.7886 41.616 39.7966 41.616H40.5406V43.536H39.4126C38.3726 43.536 37.5566 43.736 36.9646 44.136C36.3886 44.52 36.1006 45.008 36.1006 45.6V54H34.1806ZM47.5319 54.288C46.6839 54.288 45.9159 54.136 45.2279 53.832C44.5559 53.528 43.9719 53.096 43.4759 52.536C42.9959 51.96 42.6199 51.28 42.3479 50.496C42.0919 49.696 41.9639 48.8 41.9639 47.808C41.9639 46.832 42.0919 45.944 42.3479 45.144C42.6199 44.344 42.9959 43.664 43.4759 43.104C43.9719 42.528 44.5559 42.088 45.2279 41.784C45.9159 41.48 46.6839 41.328 47.5319 41.328C48.3639 41.328 49.1079 41.48 49.7639 41.784C50.4199 42.088 50.9799 42.512 51.4439 43.056C51.9079 43.584 52.2599 44.216 52.4999 44.952C52.7559 45.688 52.8839 46.496 52.8839 47.376V48.288H43.9799V48.864C43.9799 49.392 44.0599 49.888 44.2199 50.352C44.3959 50.8 44.6359 51.192 44.9399 51.528C45.2599 51.864 45.6439 52.128 46.0919 52.32C46.5559 52.512 47.0759 52.608 47.6519 52.608C48.4359 52.608 49.1159 52.424 49.6919 52.056C50.2839 51.688 50.7399 51.16 51.0599 50.472L52.4279 51.456C52.0279 52.304 51.4039 52.992 50.5559 53.52C49.7079 54.032 48.6999 54.288 47.5319 54.288ZM47.5319 42.936C47.0039 42.936 46.5239 43.032 46.0919 43.224C45.6599 43.4 45.2839 43.656 44.9639 43.992C44.6599 44.328 44.4199 44.728 44.2439 45.192C44.0679 45.64 43.9799 46.136 43.9799 46.68V46.848H50.8199V46.584C50.8199 45.48 50.5159 44.6 49.9079 43.944C49.3159 43.272 48.5239 42.936 47.5319 42.936Z" fill="#121212"/>
</g>
<circle cx="76" cy="46" r="15" fill="#FF0404"/>
<defs>
<filter id="filter0_d_6_6" x="0.113647" y="5" width="86.6584" height="57.288" filterUnits="userSpaceOnUse" color-interpolation-filters="sRGB">
<feFlood flood-opacity="0" result="BackgroundImageFix"/>
<feColorMatrix in="SourceAlpha" type="matrix" values="0 0 0 0 0 0 0 0 0 0 0 0 0 0 0 0 0 0 127 0" result="hardAlpha"/>
<feOffset dy="4"/>
<feGaussianBlur stdDeviation="2"/>
<feComposite in2="hardAlpha" operator="out"/>
<feColorMatrix type="matrix" values="0 0 0 0 0 0 0 0 0 0 0 0 0 0 0 0 0 0 0.25 0"/>
<feBlend mode="normal" in2="BackgroundImageFix" result="effect1_dropShadow_6_6"/>
<feBlend mode="normal" in="SourceGraphic" in2="effect1_dropShadow_6_6" result="shape"/>
</filter>
</defs>
</svg>
